<svg width="53" height="48" viewBox="0 0 53 48" fill="none" xmlns="http://www.w3.org/2000/svg">
<path d="M1 25.5864C4.72378 22.6074 15.6823 20.1603 26.2153 26.2985M26.2153 26.2985C38.9825 35.2356 48.3894 30.418 50.7922 22.4683C53.5 13.5095 47.6004 -0.193486 33.5564 1.0832C22.5819 2.08086 22.3851 11.2971 25.2577 15.4464C28.7687 12.893 33.1308 11.9354 34.8332 14.4888C38.6634 20.2341 29.5135 25.0218 26.2153 26.2985ZM1 34.8427C5.04296 33.1404 15.044 29.5541 22.7043 33.6396C32.2797 38.7465 34.8332 39.9496 41.8551 38.0345M10.2562 41.5455C13.0225 41.5455 17.2782 38.992 24.3002 44.1726C28.3528 47.1625 34.3012 46.6523 36.7482 46.014" stroke="#333333" stroke-width="2" stroke-linecap="round" stroke-linejoin="round"/>
<path d="M1.476 7.38952C1.628 7.38952 1.764 7.42952 1.884 7.50952C2.012 7.58952 2.088 7.72952 2.112 7.92952C2.208 8.56152 2.268 9.19352 2.292 9.82552C2.324 10.4495 2.34 11.1575 2.34 11.9495C2.34 12.2855 2.312 12.8975 2.256 13.7855C2.608 13.8175 2.88 13.8335 3.072 13.8335C3.208 13.8335 3.516 13.8135 3.996 13.7735C4.276 13.7335 4.52 13.7135 4.728 13.7135C4.92 13.7135 5.096 13.7335 5.256 13.7735C5.416 13.8055 5.58 13.8615 5.748 13.9415C5.916 14.0375 6 14.1855 6 14.3855C6 14.5455 5.948 14.6895 5.844 14.8175C5.748 14.9455 5.632 15.0095 5.496 15.0095C5.4 15.0095 5.248 14.9935 5.04 14.9615C4.664 14.9055 4.304 14.8775 3.96 14.8775C3.848 14.8775 3.72 14.8855 3.576 14.9015C3.44 14.9095 3.34 14.9135 3.276 14.9135C3.084 14.9375 2.892 14.9495 2.7 14.9495C2.308 14.9495 1.956 14.9295 1.644 14.8895C1.484 14.8735 1.324 14.8135 1.164 14.7095C1.004 14.5975 0.924 14.4375 0.924 14.2295C0.924 14.1095 0.94 13.8015 0.972 13.3055C1.028 12.4815 1.056 11.8535 1.056 11.4215C1.056 11.0855 1.04 10.7335 1.008 10.3655C0.976 9.99752 0.956 9.76552 0.948 9.66952C0.876 8.98952 0.84 8.42952 0.84 7.98952C0.84 7.78152 0.888 7.62952 0.984 7.53352C1.088 7.43752 1.252 7.38952 1.476 7.38952ZM11.8426 13.3775C11.9946 13.3775 12.1066 13.4375 12.1786 13.5575C12.2586 13.6695 12.2986 13.7935 12.2986 13.9295C12.2986 14.0975 12.2706 14.2175 12.2146 14.2895C12.1666 14.3535 12.0706 14.4215 11.9266 14.4935C11.5906 14.6535 11.1746 14.7815 10.6786 14.8775C10.1826 14.9735 9.65059 15.0215 9.08259 15.0215C8.37059 15.0215 7.84659 14.9015 7.51059 14.6615C7.18259 14.4215 6.97859 14.1335 6.89859 13.7975C6.82659 13.4535 6.79059 13.0055 6.79059 12.4535C6.79059 11.8615 6.81459 11.2815 6.86259 10.7135C6.91059 10.1375 6.99459 9.40552 7.11459 8.51752C7.17059 8.13352 7.32259 7.85752 7.57059 7.68952C7.81859 7.51352 8.09059 7.42552 8.38659 7.42552C8.63459 7.42552 9.03859 7.41752 9.59859 7.40152L10.6426 7.38952C11.0746 7.38952 11.3866 7.40152 11.5786 7.42552C11.8186 7.47352 11.9946 7.52952 12.1066 7.59352C12.2266 7.64952 12.2866 7.74952 12.2866 7.89352C12.2866 8.05352 12.2306 8.20952 12.1186 8.36152C12.0146 8.51352 11.8546 8.58952 11.6386 8.58952C11.3906 8.58952 11.0346 8.57352 10.5706 8.54152C10.1066 8.50952 9.75859 8.49352 9.52659 8.49352C9.32659 8.49352 9.13059 8.50552 8.93859 8.52952C8.71459 8.54552 8.55459 8.57352 8.45859 8.61352C8.36259 8.65352 8.30659 8.72152 8.29059 8.81752C8.17859 9.64152 8.12259 10.2495 8.12259 10.6415C8.30659 10.6655 8.48659 10.6775 8.66259 10.6775C8.88659 10.6775 9.12659 10.6655 9.38259 10.6415C9.63859 10.6175 9.80259 10.6015 9.87459 10.5935C10.2986 10.5535 10.6626 10.5335 10.9666 10.5335C11.1426 10.5335 11.2746 10.5655 11.3626 10.6295C11.4586 10.6935 11.5066 10.7815 11.5066 10.8935C11.5066 11.0695 11.4586 11.2055 11.3626 11.3015C11.2746 11.3975 11.1146 11.4695 10.8826 11.5175C10.6026 11.5735 10.2546 11.6175 9.83859 11.6495C9.43059 11.6815 9.03059 11.6975 8.63859 11.6975C8.50259 11.6975 8.31459 11.6895 8.07459 11.6735C8.05059 12.1615 8.03859 12.6135 8.03859 13.0295C8.03859 13.5975 8.41459 13.8815 9.16659 13.8815C9.56659 13.8815 9.89859 13.8535 10.1626 13.7975C10.4266 13.7415 10.7306 13.6615 11.0746 13.5575C11.3946 13.4375 11.6506 13.3775 11.8426 13.3775ZM19.0037 14.2415C19.0117 14.4095 18.9917 14.5295 18.9437 14.6015C18.8957 14.6655 18.7997 14.7335 18.6557 14.8055C18.4397 14.9095 18.1837 14.9775 17.8877 15.0095C17.5997 15.0415 17.2277 15.0575 16.7717 15.0575H15.9557C15.2437 15.0575 14.7157 14.9375 14.3717 14.6975C14.0277 14.4495 13.8117 14.1535 13.7237 13.8095C13.6357 13.4655 13.5837 13.0215 13.5677 12.4775C13.5597 12.2935 13.5557 12.0215 13.5557 11.6615C13.5557 10.8775 13.6237 9.82952 13.7597 8.51752C13.7997 8.13352 13.9397 7.85752 14.1797 7.68952C14.4197 7.51352 14.6917 7.42552 14.9957 7.42552C15.2437 7.42552 15.6477 7.41752 16.2077 7.40152L17.2637 7.38952C17.6957 7.38952 18.0077 7.40152 18.1997 7.42552C18.4397 7.47352 18.6197 7.52952 18.7397 7.59352C18.8597 7.64952 18.9237 7.74952 18.9317 7.89352C18.9317 8.05352 18.8797 8.20952 18.7757 8.36152C18.6717 8.51352 18.5117 8.58952 18.2957 8.58952C18.0477 8.58952 17.6917 8.57352 17.2277 8.54152C16.7637 8.50952 16.4117 8.49352 16.1717 8.49352C15.9557 8.49352 15.7597 8.50552 15.5837 8.52952C15.3597 8.54552 15.1997 8.57352 15.1037 8.61352C15.0077 8.65352 14.9557 8.72152 14.9477 8.81752C14.8597 9.68952 14.8237 10.2975 14.8397 10.6415C15.0237 10.6655 15.2077 10.6775 15.3917 10.6775C15.5757 10.6775 15.8277 10.6615 16.1477 10.6295C16.2277 10.6215 16.3277 10.6135 16.4477 10.6055C16.5677 10.5975 16.7037 10.5935 16.8557 10.5935C16.9437 10.5935 17.0837 10.6015 17.2757 10.6175L17.6477 10.6295C18.0157 10.6295 18.1997 10.7615 18.1997 11.0255C18.1997 11.1855 18.1557 11.3135 18.0677 11.4095C17.9797 11.5055 17.8237 11.5775 17.5997 11.6255C17.2957 11.6815 16.8037 11.7095 16.1237 11.7095H15.3917C15.2397 11.7095 15.0517 11.7015 14.8277 11.6855C14.8197 11.8295 14.8157 12.0375 14.8157 12.3095C14.8157 12.6615 14.8197 12.9095 14.8277 13.0535C14.8517 13.6135 15.2397 13.8935 15.9917 13.8935C16.2477 13.8935 16.5197 13.9015 16.8077 13.9175L17.2517 13.9295C17.4597 13.9295 17.6317 13.9095 17.7677 13.8695C17.9037 13.8215 18.0357 13.7815 18.1637 13.7495C18.2997 13.7095 18.4237 13.6895 18.5357 13.6895C18.6877 13.6895 18.8037 13.7495 18.8837 13.8695C18.9637 13.9815 19.0037 14.1055 19.0037 14.2415Z" fill="#333333"/>
</svg>
